<svg id="Layer_1" data-name="Layer 1" xmlns="http://www.w3.org/2000/svg" viewBox="0 0 512 512"><defs><style>.cls-1{fill:#fff;}</style></defs><title>safari-pinned-tab</title><path class="cls-1" d="M960,277c-141.38,0-256,114.62-256,256S818.62,789,960,789s256-114.62,256-256S1101.38,277,960,277Zm44.33,460.27a174.34,174.34,0,0,1-223.53-104A139.48,139.48,0,0,1,864,454.39a111.27,111.27,0,0,1,86.1,4c20.56,10.27,21.8,20.49,37.79,29.24,16.46,9,35.69,13.18,55.72,13.2a124.26,124.26,0,0,0,91.76-40.2C1174.67,573,1116.47,696.37,1004.33,737.27Z" transform="translate(-704 -277)"/></svg>