<svg id="Layer_1" data-name="Layer 1" xmlns="http://www.w3.org/2000/svg" viewBox="0 0 628.01 628"><defs><style>.cls-1,.cls-2{fill:#fd7637;}.cls-2{opacity:0.6;}</style></defs><title>iit</title><path class="cls-1" d="M538.33,94.36h0A193.75,193.75,0,0,1,562.45,125a204.11,204.11,0,0,1,30.75,77.36c19.67,111.49-54.78,217.81-166.27,237.48a204.75,204.75,0,0,1-181-57.34l15.8-15.81L536.24,92.22l-.75-.76-1.66-1.63a312.35,312.35,0,0,0-165.32-85C237.46-18.28,111.07,43.5,45.79,150.7a312.52,312.52,0,0,0-41,108.79c-30.1,170.75,83.92,333.58,254.67,363.69s333.58-83.9,363.69-254.67C641.46,264.93,606.67,164.23,538.33,94.36Z"/><path class="cls-2" d="M426.93,439.83c111.49-19.67,185.94-126,166.27-237.48A204.11,204.11,0,0,0,562.45,125a193.69,193.69,0,0,1,18.65,170.6c-36.65,100.69-148,152.61-248.67,116a193.49,193.49,0,0,1-70.66-44.87L246,382.49A204.75,204.75,0,0,0,426.93,439.83Z"/></svg>