<svg id="Layer_1" data-name="Layer 1" xmlns="http://www.w3.org/2000/svg" viewBox="0 0 93 84"><defs><style>.cls-1{opacity:0.36;}</style></defs><title>iit</title><g class="cls-1"><path d="M73.79,15.77h0a22.53,22.53,0,0,1,2.88,3.66A24.48,24.48,0,0,1,38.88,50.18l1.88-1.89L73.54,15.51l-.09-.09-.2-.19A37.51,37.51,0,0,0,15,22.5a37.06,37.06,0,0,0-4.89,13A37.49,37.49,0,1,0,73.79,15.77Z"/></g><path d="M47,7.5A35,35,0,0,1,53,8,34.24,34.24,0,0,1,69.21,15.6L38.64,46.17l-1.89,1.89-2.11,2.11,2.11,2.13A27.46,27.46,0,0,0,61,60a27.29,27.29,0,0,0,17.74-11.3,28.3,28.3,0,0,0,2.69-4.79A33.42,33.42,0,0,1,81,48,34.42,34.42,0,0,1,47,76.5,34.92,34.92,0,0,1,41,76,34.5,34.5,0,0,1,47,7.5m0-3a37.55,37.55,0,0,0-32,18,37.06,37.06,0,0,0-4.89,13A37.49,37.49,0,1,0,73.79,15.77a22.53,22.53,0,0,1,2.88,3.66A24.5,24.5,0,0,1,60.49,57a25,25,0,0,1-4.28.37,24.47,24.47,0,0,1-17.33-7.22l1.88-1.89L73.54,15.51l-.09-.09-.2-.19A37.65,37.65,0,0,0,47,4.5Z"/><path class="cls-1" d="M76.67,19.43a24.49,24.49,0,0,1-37.8,30.75l1.89-1.89A23.17,23.17,0,0,0,76.67,19.43Z"/></svg>