<svg id="Layer_1" data-name="Layer 1" xmlns="http://www.w3.org/2000/svg" viewBox="0 0 755.25 542.36"><defs><style>.cls-1{fill:#fd7637;}</style></defs><title>iit</title><polygon class="cls-1" points="621.24 133.26 620.67 133.26 639.4 0 506.14 0 487.41 133.26 620.67 133.26 620.66 133.3 486.08 142.73 467.16 277.32 448.83 407.75 448.56 407.77 429.9 542.36 562.94 533.04 563.9 533.04 564.48 533.04 564.49 532.99 564.5 532.93 699.09 523.49 718 388.89 583.42 398.32 583.68 396.47 583.82 396.44 583.68 396.47 601.75 267.88 736.33 258.45 753.93 133.26 755.25 123.86 621.24 133.26"/><polygon class="cls-1" points="56.19 133.26 189.44 133.26 208.17 0 74.91 0 56.19 133.26"/><polygon class="cls-1" points="271.8 133.26 405.06 133.26 423.79 0 290.53 0 271.8 133.26"/><polygon class="cls-1" points="31.65 307.85 0 533.04 133.26 533.04 166.23 298.41 185.15 163.83 50.56 173.26 31.65 307.85"/><polygon class="cls-1" points="249.41 292.58 215.61 533.04 348.87 533.04 383.99 283.15 402.91 148.56 268.32 158 249.41 292.58"/></svg>