<svg id="Layer_1" data-name="Layer 1" xmlns="http://www.w3.org/2000/svg" viewBox="0 0 93 84"><defs><style>.cls-1{opacity:0.5;fill:white} .cls-2{fill:white}</style></defs><title>iit</title><path class="cls-2" d="M73.79,15.77h0a22.53,22.53,0,0,1,2.88,3.66A24.48,24.48,0,0,1,38.88,50.18l1.88-1.89L73.54,15.51l-.09-.09-.2-.19A37.51,37.51,0,0,0,15,22.5a37.06,37.06,0,0,0-4.89,13A37.49,37.49,0,1,0,73.79,15.77Z"/><path class="cls-1" d="M76.67,19.43a24.49,24.49,0,0,1-37.8,30.75l1.89-1.89A23.17,23.17,0,0,0,76.67,19.43Z"/></svg>